<?xml version="1.0" encoding="iso-8859-1"?>
<!-- Generator: Adobe Illustrator 19.0.0, SVG Export Plug-In . SVG Version: 6.00 Build 0)  -->
<svg version="1.1" id="Capa_1" xmlns="http://www.w3.org/2000/svg" xmlns:xlink="http://www.w3.org/1999/xlink" x="0px" y="0px"
	 viewBox="0 0 511.999 511.999" style="enable-background:new 0 0 511.999 511.999;" xml:space="preserve">
<g>
	<g>
		<path d="M406.226,294.147c-16.146-0.385-31.524,2.787-45.413,8.776l-19.87-38.549l7.036,2.897c4.055,1.67,8.269,2.46,12.431,2.46
			c12.791-0.001,25.054-7.472,30.419-19.831c0.825-1.9,1.452-3.854,1.896-5.838h10.695c4.161,0,7.789-3.206,7.914-7.365
			c0.13-4.303-3.321-7.833-7.595-7.833h-11.294c-0.372-1.439-0.835-2.866-1.405-4.271c-3.402-8.389-10.127-15.166-18.448-18.593
			l-56.371-23.209l1.156-50.577c0.002-0.073-0.001-0.146,0-0.219c8.916,4.63,19.028,7.263,29.75,7.263
			c34.186,0,62.252-26.62,64.607-60.219c3.39-1.83,6.368-4.428,8.643-7.664c4.697-6.682,5.853-15.255,3.091-22.932
			c-4.723-13.133-12.414-23.812-22.859-31.74c-13.664-10.37-31.658-15.629-53.482-15.629c-14.591,0-28.994,4.472-42.912,13.309
			c-3.74,2.375-4.687,7.424-2.038,10.976c2.394,3.212,6.846,3.97,10.23,1.827c11.44-7.248,23.092-10.916,34.72-10.916
			c32.102,0,52.928,12.43,61.908,36.946c1.161,3.17,0.814,6.774-1.159,9.513c-1.897,2.634-4.84,4.143-8.092,4.143H281.16
			c-2.088,0-3.052-1.447-3.37-2.069c-0.312-0.61-0.908-2.207,0.288-3.859c3.521-4.866,7.206-9.431,11.008-13.634
			c2.72-3.008,2.631-7.606-0.232-10.478l-0.001-0.001c-3.063-3.072-8.086-2.978-10.996,0.238
			c-4.186,4.626-8.236,9.637-12.091,14.966c-4.179,5.778-4.758,13.319-1.509,19.68c0.542,1.061,1.179,2.048,1.887,2.967
			c-11.039,4.538-21.118,11.23-29.79,19.895l-47.901,47.901c-0.682,0.682-1.351,1.384-1.994,2.095
			c-0.029,0.031-0.059,0.064-0.087,0.096c-19.79,22.032-18.881,55.686,2.081,76.647l3.274,3.274h-45.927
			c-4.161,0-7.789,3.206-7.914,7.365c-0.13,4.303,3.321,7.833,7.595,7.833h18.758l18.827,33.047l-22.416,34.727
			c-16.632-9.188-35.917-14.139-56.393-13.371C46.915,296.345,0.823,343.58,0.011,400.959
			c-0.855,60.486,48.1,109.965,108.394,109.965c57.221,0,104.223-44.566,108.134-100.81h49.149c2.733,0,5.255-1.468,6.606-3.844
			l65.39-115.05l9.629,18.681c-32.17,19.621-53.373,55.525-52.066,96.172c1.827,56.809,47.915,102.928,104.723,104.79
			c61.736,2.024,112.548-47.875,112.025-109.284C511.5,343.362,464.429,295.535,406.226,294.147z M340.418,82.071h24.315v6.473
			c0,4.196,3.402,7.599,7.599,7.599s7.599-3.402,7.599-7.599v-6.473h16.202c-3.668,23.749-24.245,41.99-49.005,41.99
			c-2.277,0-4.513-0.168-6.709-0.466V82.071z M325.221,82.071v36.874c-14.211-7.029-24.597-20.665-27.1-36.874H325.221z
			 M247.099,105.326c10.097-10.089,22.471-16.979,36.131-20.214c0.771,4.644,2.04,9.121,3.747,13.38
			c-0.587-0.046-1.177-0.079-1.773-0.093c-18.167-0.462-33.375,13.975-33.833,32.186l-1.547,66.136l-47.059-47.058L247.099,105.326z
			 M192.919,161.308l63.744,63.744c1.572,1.999,3.398,3.818,5.435,5.435l9.705,9.705l-27.476,15.508L199.2,210.574
			C185.889,197.262,183.692,176.916,192.919,161.308z M181.732,239.79h21.685c1.036,0,2.023-0.209,2.924-0.585l28.258,28.258
			h-37.101L181.732,239.79z M231.109,282.662l-7.295,30.995l-17.658-30.995H231.109z M102.025,398.395
			c-1.509,2.337-1.619,5.312-0.289,7.756c1.33,2.444,3.89,3.963,6.673,3.963h68.209c-3.792,34.288-32.931,61.048-68.213,61.048
			c-37.85,0-68.642-30.793-68.642-68.642c0-37.849,30.793-68.642,68.642-68.642c10.993,0,21.38,2.612,30.601,7.225L102.025,398.395z
			 M122.358,394.917l29.409-45.563c13.567,11.086,22.822,27.249,24.85,45.563H122.358z M108.405,495.727
			c-51.395,0-93.208-41.812-93.208-93.208c0-51.395,41.813-93.208,93.208-93.208c15.898,0,30.876,4.005,43.986,11.052l-5.106,7.912
			c-11.63-6.115-24.853-9.595-38.88-9.595c-46.23,0-83.839,37.611-83.839,83.839c0,46.229,37.611,83.839,83.839,83.839
			c43.668,0,79.627-33.563,83.48-76.245h9.416C197.423,457.971,157.242,495.727,108.405,495.727z M191.884,394.916v0.001
			c-2.137-23.652-14.136-44.489-31.845-58.378l5.107-7.913c20.272,15.603,33.97,39.343,36.155,66.29H191.884z M216.537,394.916
			c-2.248-32.289-18.694-60.728-43.128-79.094l18.139-28.1l27.152,47.66l-3.083,13.098c-2.427,10.338,0.604,20.982,8.112,28.475
			c4.223,4.21,9.541,7.067,15.373,8.262c1.971,0.404,3.943,0.6,5.894,0.6c0.796,0,1.588-0.041,2.375-0.104l5.242,9.203H216.537z
			 M242.159,370.331c-2.922-0.599-5.584-2.029-7.697-4.136c-3.751-3.743-5.264-9.068-4.051-14.238l17.73-75.336
			c0.002-0.012,0.006-0.022,0.008-0.034l1.519-6.452l32.369-18.269c1.321,2.976,1.662,6.335,0.884,9.633l-2.806,11.929
			c-0.01,0.044-0.022,0.086-0.031,0.131l-19.958,84.816C258.189,366.605,250.132,371.968,242.159,370.331z M265.681,387.15
			l-3.746-6.576c6.303-4.241,11.118-10.795,12.983-18.719l18.635-79.194h31.515L265.681,387.15z M297.13,267.465L297.13,267.465
			l0.584-2.481c1.541-6.536,0.888-13.196-1.698-19.11l23.226,9.563l6.199,12.028H297.13z M327.733,242.498
			c-0.021-0.009-0.042-0.017-0.063-0.025l-51.796-21.327c-1.076-0.443-2.11-0.992-3.073-1.631
			c-5.136-3.409-8.108-9.124-7.953-15.303l1.713-73.259c0.243-9.668,8.186-17.368,17.805-17.368c0.151,0,0.302,0.001,0.454,0.005
			c9.82,0.247,17.609,8.437,17.363,18.258c0,0.006,0,0.011,0,0.017l-1.276,55.792c-0.072,3.142,1.797,6.004,4.704,7.199
			l61.193,25.196c4.087,1.683,7.466,4.852,9.482,8.812h-15.1c-4.196,0-7.599,3.402-7.599,7.599s3.402,7.599,7.599,7.599h15.597
			c-3.912,8.687-14.179,12.794-23.017,9.157L327.733,242.498z M403.595,495.727c-51.395,0-93.208-41.813-93.208-93.208
			c0-33.306,17.563-62.582,43.91-79.067l4.315,8.373c-23.338,14.901-38.858,41.012-38.858,70.696
			c0,46.23,37.611,83.839,83.839,83.839c10.575,0,20.888-1.945,30.653-5.783c3.906-1.535,5.828-5.945,4.294-9.851
			c-1.535-3.906-5.947-5.829-9.851-4.294c-7.988,3.139-16.43,4.729-25.095,4.729c-37.85,0-68.642-30.793-68.642-68.642
			c0-23.809,12.189-44.818,30.65-57.134l31.24,60.611c1.348,2.617,4.006,4.118,6.761,4.118c1.171,0,2.362-0.273,3.475-0.846
			c3.73-1.922,5.195-6.505,3.272-10.236l-31.247-60.624c7.612-2.918,15.865-4.533,24.491-4.533c37.85,0,68.642,30.793,68.642,68.642
			c0,19.359-8.239,37.918-22.605,50.916c-3.112,2.815-3.352,7.621-0.537,10.733c2.817,3.112,7.621,3.352,10.733,0.536
			c17.544-15.874,27.606-38.54,27.606-62.185c0-46.229-37.611-83.839-83.839-83.839c-11.133,0-21.757,2.2-31.486,6.158l-4.315-8.372
			c11.029-4.606,23.122-7.155,35.801-7.155c51.396,0,93.208,41.813,93.208,93.208C496.803,453.915,454.99,495.727,403.595,495.727z"
			/>
	</g>
</g>
<g>
</g>
<g>
</g>
<g>
</g>
<g>
</g>
<g>
</g>
<g>
</g>
<g>
</g>
<g>
</g>
<g>
</g>
<g>
</g>
<g>
</g>
<g>
</g>
<g>
</g>
<g>
</g>
<g>
</g>
</svg>
