<svg height="496pt" viewBox="-39 0 495 496" width="496pt" xmlns="http://www.w3.org/2000/svg"><path d="m185.066406 448h48v-48h-48zm16-32h16v16h-16zm0 0"/><path d="m297.066406 304h16v16h-16zm0 0"/><path d="m329.066406 304h16v16h-16zm0 0"/><path d="m265.066406 304h16v16h-16zm0 0"/><path d="m417.066406 248v-30.238281c0-49.515625-5.445312-99.144531-16.191406-147.496094l-2.222656-10-37.585938 18.789063v-31.054688h-16v39.054688l-40.566406 20.28125 2.433594 21.886718c4.070312 36.65625 6.132812 73.9375 6.132812 110.777344v8h32v24h-117.269531l-20.570313 48h-14.160156v-64h88v-27.183594c0-73-10.886718-145.402344-32.351562-215.167968l-3.261719-10.609376-52.386719 37.417969v-40.457031h-16v51.886719l-57.644531 41.175781 2.15625 5.753906c15.585937 41.558594 23.488281 85.136719 23.488281 129.535156v27.648438h32v64h-61.78125l-12.800781-32h-45.417969v-24h56v-30.238281c0-49.515625-5.445312-99.144531-16.191406-147.496094l-2.222656-10-37.585938 18.789063v-31.054688h-16v39.054688l-40.566406 20.28125 2.433594 21.886718c4.070312 36.65625 6.132812 73.9375 6.132812 110.777344v8h32v24h-33.636718l18.4375 98.320312c4.960937 26.472657 28.105468 45.679688 55.039062 45.679688h56.632812c4 35.945312 34.535157 64 71.527344 64 36.992188 0 67.539063-28.054688 71.53125-64h55.804688c27.488281 0 50.722656-19.679688 55.234375-46.800781l18.878906-113.199219h-49.449219v-24zm-152-8h-72v-21.3125l71.90625 4.792969c.015625 1.777343.09375 3.550781.09375 5.335937zm-72-104.433594v-28.367187l55.800782-29.757813c2.671874 12.34375 4.921874 24.757813 6.929687 37.214844zm65.210938-4.871094c1.414062 10.214844 2.550781 20.464844 3.519531 30.738282l-68.730469 9.160156v-18.167969zm-81.210938 10.207032-24.292968 8.097656c-1.273438-6.046875-2.664063-12.0625-4.234376-18.054688l28.527344-15.210937zm0 16.859375v14.964843l-19.703125 2.625c-.488281-3.503906-1-7.007812-1.582031-10.496093zm-17.847656 33.484375 17.847656-2.375v12.714844l-17.078125-1.136719c-.222656-3.074219-.472656-6.136719-.769531-9.203125zm33.847656-4.511719 70.144532-9.351563c.722656 9.992188 1.183593 20.007813 1.480468 30.042969l-71.625-4.777343zm43.546875-157.71875c3.109375 10.703125 5.878907 21.488281 8.480469 32.296875l-52.027344 27.75v-28.941406zm-59.546875 42.527344v26.050781l-33.007812 17.605469c-1.671875-5.4375-3.460938-10.855469-5.382813-16.230469zm-16 168.457031v-11.648438c0-3.945312-.125-7.878906-.246094-11.816406l16.246094 1.082032v22.382812zm-64 8h-40v-20.328125l39.9375 3.632813c0 .816406.0625 1.640624.0625 2.457031zm-56-72h-19.214844c-.230468-2.960938-.441406-5.921875-.703124-8.871094l19.917968-5.976562zm16-19.648438 33.984375-10.191406c1.320313 9.929688 2.449219 19.863282 3.320313 29.839844h-37.304688zm-34.054687 35.648438h18.054687v18.144531l-17.191406-1.558593c-.253906-5.53125-.519531-11.058594-.863281-16.585938zm34.054687 0h38.53125c.488282 7.726562.78125 15.457031 1 23.191406l-39.53125-3.589844zm26.335938-92.222656c2.074218 10.0625 3.839844 20.183594 5.449218 30.335937l-31.785156 9.535157v-26.703126zm-42.335938 21.167968v23.503907l-21.503906 6.445312c-.253906-2.480469-.453125-4.964843-.726562-7.4375l-1.199219-10.800781zm-16.03125 127.054688c-.0625-7.753906-.246094-15.511719-.488281-23.289062l16.519531 1.503906v21.785156zm124.207032 136h-107.46875c-.050782-.214844-.136719-.414062-.175782-.632812l-2.890625-15.367188h125.199219c-5.644531 4.566406-10.605469 9.953125-14.664062 16zm-100.167969 16h92.195312c-1.816406 5.105469-3.113281 10.441406-3.730469 16h-56.632812c-12.894531 0-24.460938-6.246094-31.832031-16zm159.992187 80c-30.878906 0-56-25.128906-56-56s25.121094-56 56-56c30.882813 0 56 25.128906 56 56s-25.117187 56-56 56zm166.425782-96h-106.601563c-4.054687-6.046875-9.015625-11.433594-14.671875-16h124.066406l-2.433594 14.574219c-.070312.496093-.261718.9375-.359374 1.425781zm-39.089844 32h-55.804688c-.617187-5.558594-1.921875-10.894531-3.730468-16h91.425781c-7.335938 9.769531-18.898438 16-31.890625 16zm44.554687-64h-345.25l-9-48h64.945313l12.800781 32h113.320313l20.566406-48h153.28125zm20.109375-120h-40v-20.328125l39.9375 3.632813c0 .816406.0625 1.640624.0625 2.457031zm-56-72h-19.214844c-.230468-2.960938-.441406-5.921875-.703124-8.871094l19.917968-5.976562zm16-19.648438 33.984375-10.191406c1.320313 9.929688 2.449219 19.863282 3.320313 29.839844h-37.304688zm-34.054687 35.648438h18.054687v18.144531l-17.191406-1.558593c-.253906-5.53125-.519531-11.058594-.863281-16.585938zm34.054687 0h38.53125c.488282 7.726562.78125 15.457031 1 23.191406l-39.53125-3.589844zm26.335938-92.222656c2.074218 10.0625 3.839844 20.183594 5.449218 30.335937l-31.785156 9.535157v-26.703126zm-42.335938 21.167968v23.503907l-21.503906 6.445312c-.253906-2.480469-.453125-4.964843-.726562-7.4375l-1.199219-10.800781zm-16.03125 127.054688c-.0625-7.753906-.246094-15.511719-.488281-23.289062l16.519531 1.503906v21.785156zm0 0"/></svg>