<svg height="511pt" viewBox="0 -90 511.99961 511" width="511pt" xmlns="http://www.w3.org/2000/svg"><path d="m68.617188 166.511719c1.324218.953125 2.851562 1.410156 4.367187 1.410156 2.332031 0 4.632813-1.085937 6.097656-3.125l13.566407-18.882813h70.304687v15.335938h-31.832031c-4.144532 0-7.5 3.355469-7.5 7.5 0 4.140625 3.355468 7.5 7.5 7.5h75.832031v24.90625c0 4.140625 3.359375 7.5 7.5 7.5 4.144531 0 7.5-3.359375 7.5-7.5v-24.90625h19.167969c4.140625 0 7.5-3.359375 7.5-7.5 0-4.144531-3.359375-7.5-7.5-7.5h-63.167969v-15.335938h27.167969c4.144531 0 7.5-3.359374 7.5-7.5 0-4.144531-3.355469-7.5-7.5-7.5h-101.699219l12.335937-17.175781h23.085938c4.140625 0 7.5-3.359375 7.5-7.5 0-4.144531-3.359375-7.5-7.5-7.5h-12.308594l59.039063-82.199219c.652343-.90625 1.550781-1.039062 2.03125-1.039062.476562 0 1.378906.132812 2.027343 1.042969l38.136719 53.089843c2.417969 3.367188 7.105469 4.132813 10.46875 1.71875 3.363281-2.417968 4.132813-7.105468 1.714844-10.46875l-38.136719-53.09375c-3.277344-4.5625-8.589844-7.289062-14.210937-7.289062-5.621094 0-10.933594 2.726562-14.214844 7.289062l-106.492187 148.257813c-2.414063 3.363281-1.644532 8.050781 1.71875 10.464844zm0 0"/><path d="m503.886719 315.375c-70.875 5.835938-138.222657-2.511719-191.433594-23.085938 32.261719-18.992187 65.835937-34.3125 97.675781-44.507812 3.945313-1.261719 6.121094-5.484375 4.855469-9.429688-1.261719-3.945312-5.484375-6.121093-9.429687-4.855468-10.828126 3.46875-21.851563 7.515625-32.945313 12.070312l-62.941406-87.628906 16.640625-23.164062h34.101562c4.144532 0 7.5-3.359376 7.5-7.5 0-4.140626-3.355468-7.5-7.5-7.5h-23.328125l30.421875-42.351563c.648438-.90625 1.550782-1.039063 2.027344-1.039063.480469 0 1.382812.132813 2.03125 1.039063l58.554688 81.519531h-36c-4.140626 0-7.5 3.359375-7.5 7.5 0 4.144532 3.359374 7.5 7.5 7.5h12.5v12.046875c0 4.140625 3.359374 7.5 7.5 7.5 4.144531 0 7.5-3.359375 7.5-7.5v-12.046875h19.273437l32.117187 44.710938c-10.683593 1.214844-21.570312 3.027344-32.589843 5.433594-4.046875.882812-6.609375 4.878906-5.726563 8.925781.765625 3.507812 3.871094 5.902343 7.320313 5.902343.527343 0 1.066406-.054687 1.605469-.171874 21.039062-4.59375 41.523437-6.921876 60.882812-6.921876 4.144531 0 7.5-3.355468 7.5-7.5 0-4.140624-3.355469-7.5-7.5-7.5-4.632812 0-9.328125.132813-14.066406.382813l-106.6875-148.53125c-3.28125-4.5625-8.59375-7.289063-14.214844-7.289063s-10.933594 2.726563-14.210938 7.289063l-54.886718 76.414063-39.980469-55.660157c-2.417969-3.363281-7.101563-4.132812-10.464844-1.714843-3.363281 2.417968-4.132812 7.101562-1.71875 10.464843l73.105469 101.777344h-36.253906c-4.144532 0-7.5 3.355469-7.5 7.5 0 4.140625 3.355468 7.5 7.5 7.5h47.027344l26.339843 36.664063c-21.078125 9.425781-42.261719 20.617187-62.78125 33.226562-.109375.066406-.210937.140625-.316406.214844-7.75-3.609375-15.140625-7.5-22.117187-11.679688-77.6875-46.546875-146.097657-59.527344-189.808594-62.222656-14.277344-.882812-26.871094-.765625-37.5625-.167969l12.605468-17.546875c2.414063-3.363281 1.644532-8.050781-1.71875-10.46875-3.363281-2.414062-8.050781-1.648437-10.464843 1.71875l-20.203125 28.125c-12.828125 1.691406-20.09375 3.722656-20.6875 3.894532-3.980469 1.140624-6.28125 5.296874-5.140625 9.277343s5.289062 6.28125 9.277343 5.140625c.269532-.078125 27.792969-7.789062 72.96875-5.003906 42.046876 2.59375 107.929688 15.128906 183.023438 60.121094 30.847656 18.480468 68.261719 31.632812 111.199219 39.085937 26.460937 4.59375 54.140625 6.898438 82.703125 6.898438 14.988281 0 30.222656-.636719 45.648437-1.90625 4.128907-.339844 7.199219-3.960938 6.859375-8.089844-.335937-4.128906-3.964844-7.195313-8.085937-6.859375zm0 0"/></svg>