<svg height="512pt" viewBox="0 0 512 512" width="512pt" xmlns="http://www.w3.org/2000/svg"><path d="m32 392h16v32h-16zm0 0"/><path d="m32 344h16v32h-16zm0 0"/><path d="m32 296h16v32h-16zm0 0"/><path d="m32 248h16v32h-16zm0 0"/><path d="m464 352h16v32h-16zm0 0"/><path d="m464 304h16v32h-16zm0 0"/><path d="m464 256h16v32h-16zm0 0"/><path d="m464 208h16v32h-16zm0 0"/><path d="m464 160h16v32h-16zm0 0"/><path d="m464 112h16v32h-16zm0 0"/><path d="m464 64h16v32h-16zm0 0"/><path d="m192 440h96v16h-96zm0 0"/><path d="m112 240h64v16h-64zm0 0"/><path d="m96 208h64v16h-64zm0 0"/><path d="m128 176h64v16h-64zm0 0"/><path d="m272 72h-32c-14.585938-.015625-27.324219-9.878906-30.984375-24h-65.015625v-16h80v8c0 8.835938 7.164062 16 16 16h32zm0 0"/><path d="m288 32h64v16h-64zm0 0"/><path d="m366.855469 242.398438c-29.6875-29.734376-76.25-34.351563-111.203125-11.027344-34.953125 23.324218-48.554688 68.09375-32.488282 106.921875 16.066407 38.828125 57.324219 60.894531 98.539063 52.703125s70.898437-44.359375 70.898437-86.378906c.074219-23.347657-9.199218-45.75-25.746093-62.21875zm-11.3125 113.144531c-24.292969 24.34375-62.398438 28.132812-91.007813 9.050781-28.609375-19.085938-39.75-55.722656-26.609375-87.503906 13.144531-31.78125 46.910157-49.84375 80.640625-43.144532 33.734375 6.699219 58.03125 36.296876 58.035156 70.6875.066407 19.101563-7.515624 37.4375-21.058593 50.910157zm0 0"/><path d="m272 349.792969 80.128906-45.792969-80.128906-45.792969zm16-64 31.871094 18.207031-31.871094 18.207031zm0 0"/><path d="m139.320312 0c-18.945312-.0234375-35.308593 13.242188-39.199218 31.785156l-100.121094 174.078125v282.136719h442.753906l14.621094 14.625c9.152344 9.148438 22.914062 11.882812 34.871094 6.933594 11.953125-4.953125 19.75-16.617188 19.753906-29.558594v-480zm-35.945312 58.183594c3.234375 6.539062 8.191406 12.070312 14.335938 16l58.289062 37.128906-147.40625 76.917969zm387.9375 433.128906c-6.328125 6.046875-16.296875 6.046875-22.625 0l-67.886719-67.878906 22.632813-22.632813 67.878906 67.886719c6.246094 6.25 6.246094 16.375 0 22.625zm-79.199219-101.824219-22.625 22.632813-23.390625-23.402344-5.425781 3.472656c-44.722656 28.628906-103.824219 18.96875-137.105469-22.40625s-30.050781-101.175781 7.496094-138.722656 97.347656-40.777344 138.722656-7.496094 51.035156 92.382813 22.40625 137.105469l-3.464844 5.425781zm83.886719 61.265625-16-16v-34.753906h-16v18.742188l-54.992188-54.988282c26.300782-46.976562 18.34375-105.683594-19.511718-143.960937-23.25-23.207031-54.988282-35.875-87.824219-35.066407-32.835937.8125-63.910156 15.035157-85.984375 39.363282-39.441406 43.667968-41.394531 109.496094-4.617188 155.433594 36.78125 45.933593 101.441407 58.421874 152.683594 29.484374l62.988282 62.992188h-378.742188v-32h-16v32h-16v-259.144531l16-8.351563v27.496094h16v-35.847656l160-83.464844-81.671875-52c-9.074219-5.789062-13.246094-16.871094-10.238281-27.207031 3.003906-10.339844 12.464844-17.457031 23.230468-17.480469h324.679688v32h16v-32h16zm0 0"/><path d="m160 320c.027344-25.476562-19.855469-46.535156-45.289062-47.972656-25.4375-1.4375-47.5625 17.246094-50.410157 42.5625-2.847656 25.3125 14.578125 48.445312 39.699219 52.691406v48.71875h-40v16h96v-16h-40v-17.761719l25.9375-6.476562-3.875-15.523438-22.0625 5.523438v-14.480469c23.066406-3.921875 39.957031-23.882812 40-47.28125zm-56 0v30.863281c-15.601562-4.027343-25.777344-19.03125-23.746094-35.015625s15.632813-27.96875 31.746094-27.96875 29.714844 11.984375 31.746094 27.96875-8.144532 30.988282-23.746094 35.015625v-30.863281zm0 0"/><path d="m376.535156 49.945312-42.542968 56.734376-30.398438-30.398438-59.226562 67.71875h-52.367188v16h59.632812l52.757813-60.296875 19.90625 19.90625-26.695313 35.589844 12.796876 9.601562 35.554687-47.410156c16.183594 13.039063 38.925781 14.164063 56.320313 2.792969l25.335937 39.816406h20.390625v-16h-11.609375zm-.535156 62.054688c-7.464844-.011719-14.6875-2.65625-20.390625-7.472656l19.855469-26.472656 18.214844 28.632812c-5.246094 3.464844-11.394532 5.3125-17.679688 5.3125zm0 0"/></svg>