<?xml version="1.0" encoding="iso-8859-1"?>
<!-- Generator: Adobe Illustrator 19.0.0, SVG Export Plug-In . SVG Version: 6.00 Build 0)  -->
<svg version="1.1" id="Layer_1" xmlns="http://www.w3.org/2000/svg" xmlns:xlink="http://www.w3.org/1999/xlink" x="0px" y="0px"
	 viewBox="0 0 512.153 512.153" style="enable-background:new 0 0 512.153 512.153;" xml:space="preserve">
<g>
	<g>
		<path d="M350.513,314.5c1.63,1.459,3.669,2.176,5.692,2.176c2.338,0,4.676-0.956,6.357-2.842
			c109.5-122.368,143.642-254.865,145.024-260.369c3.678-14.037,8.457-38.972-0.759-48.188c-9.233-9.242-34.193-4.267-48.094-0.512
			c-1.536,0.375-152.465,39.134-279.45,162.56l-37.939-37.931l6.033-6.033c9.984-9.984,9.984-26.223,0.009-36.207l-36.207-36.198
			c-8.047-8.055-18.765-12.501-30.165-12.501c-11.401,0-22.118,4.437-30.174,12.501c-16.631,16.649-16.631,43.716,0,60.331
			l36.198,36.215c4.83,4.83,11.255,7.492,18.091,7.492h0.009c6.844,0,13.269-2.662,18.108-7.501l6.033-6.033l78.438,78.43
			c0,0.009,0.009,0.009,0.009,0.017c0,0,0.009,0,0.017,0.008l78.285,78.293c-39.663,36.872-94.225,62.643-114.509,42.377
			c-15.735-15.753-3.627-57.95,28.177-98.159c2.927-3.695,2.304-9.062-1.399-11.989c-3.695-2.927-9.054-2.287-11.981,1.399
			c-39.006,49.314-49.801,97.869-26.863,120.815c7.962,7.962,19.089,11.742,32.205,11.742c29.79,0,69.862-19.567,106.47-54.084
			l22.528,22.528C197.638,452.833,67.283,490.32,65.278,490.909c-0.239,0.102-20.565,7.305-34.594,2.586l69.214-69.222
			c3.328-3.328,3.328-8.73,0-12.066c-3.337-3.328-8.738-3.328-12.066,0l-69.094,69.094c-3.84-11.674,0.171-28.058,2.816-35.183
			c0.324-1.178,33.971-119.381,140.979-236.979c3.174-3.482,2.918-8.883-0.572-12.058c-3.473-3.166-8.875-2.91-12.049,0.572
			C40.19,318.229,6.492,436.586,5.357,440.81c-0.623,1.613-14.797,39.799,5.675,60.262c8.55,8.559,20.25,11.068,31.019,11.068
			c14.874,0,27.964-4.787,28.501-5.009c5.572-1.553,135.927-38.929,262.178-162.227l37.914,37.922l-6.033,6.033
			c-9.975,9.984-9.975,26.223-0.009,36.198l36.215,36.207c8.055,8.064,18.765,12.493,30.165,12.493s22.11-4.429,30.165-12.484
			c8.055-8.064,12.501-18.773,12.501-30.174c0-11.401-4.446-22.118-12.501-30.174l-36.198-36.198
			c-9.668-9.677-26.539-9.677-36.207,0l-6.033,6.033L225.96,214.003c21.683-20.352,45.244-35.797,67.089-43.742
			c21.453-7.808,38.741-7.305,47.42,1.374c15.548,15.539,3.797,57.276-27.332,97.084c-2.901,3.712-2.244,9.079,1.468,11.981
			c1.57,1.22,3.413,1.809,5.248,1.809c2.543,0,5.052-1.126,6.733-3.277c38.221-48.887,48.648-96.973,25.95-119.663
			c-13.747-13.764-36.958-15.667-65.323-5.35c-24.09,8.772-49.86,25.626-73.318,47.727l-22.545-22.554
			C261.493,111.253,339.01,69.636,393.265,46.348c6.613,2.014,25.395,9.028,44.433,28.058
			c19.831,19.831,26.402,39.714,27.921,45.261c-21.367,49.476-57.873,118.076-115.772,182.784
			C346.707,305.966,347.006,311.359,350.513,314.5z M135.311,111.287l-24.132,24.141c-1.613,1.613-3.755,2.5-6.042,2.5
			c-2.278,0-4.42-0.888-6.033-2.492L62.906,99.221c-9.984-9.975-9.975-26.206,0-36.198c4.838-4.838,11.264-7.501,18.108-7.501
			c6.835,0,13.269,2.662,18.099,7.501l36.207,36.198C138.647,102.549,138.639,107.959,135.311,111.287z M376.676,400.925
			l24.141-24.132c1.613-1.613,3.755-2.5,6.033-2.5c2.27,0,4.412,0.887,6.033,2.5l36.198,36.198
			c4.83,4.838,7.501,11.264,7.501,18.108c0,6.835-2.671,13.269-7.501,18.099c-9.668,9.668-26.539,9.668-36.198,0l-36.215-36.207
			C373.348,409.663,373.357,404.253,376.676,400.925z M449.764,62.34c-12.169-12.169-24.354-20.062-34.202-25.122
			c28.689-11.119,46.882-15.795,47.462-15.94c12.723-3.43,27.221-5.146,31.607-3.789c1.374,4.369-0.23,18.884-3.575,31.744
			c-0.128,0.486-4.873,18.85-16.111,47.761C469.98,87.052,462.112,74.687,449.764,62.34z"/>
	</g>
</g>
<g>
</g>
<g>
</g>
<g>
</g>
<g>
</g>
<g>
</g>
<g>
</g>
<g>
</g>
<g>
</g>
<g>
</g>
<g>
</g>
<g>
</g>
<g>
</g>
<g>
</g>
<g>
</g>
<g>
</g>
</svg>
